<svg width="24" height="24" viewBox="0 0 24 24" fill="none" xmlns="http://www.w3.org/2000/svg">
<circle cx="12" cy="12" r="12" fill="#A6B0C3"/>
<path d="M8.8608 16H12.3935C14.392 16 15.3722 14.9815 15.3722 13.6222C15.3722 12.3011 14.4347 11.5256 13.5057 11.4787V11.3935C14.358 11.1932 15.0312 10.5966 15.0312 9.53551C15.0312 8.2358 14.0938 7.27273 12.2017 7.27273H8.8608V16ZM10.4418 14.679V12.1222H12.1847C13.1605 12.1222 13.7656 12.7188 13.7656 13.4986C13.7656 14.1932 13.2884 14.679 12.142 14.679H10.4418ZM10.4418 10.9844V8.5767H12.0398C12.9688 8.5767 13.4503 9.06676 13.4503 9.74006C13.4503 10.5071 12.8281 10.9844 12.0057 10.9844H10.4418Z" fill="white"/>
</svg>
