<svg width="24" height="24" viewBox="0 0 24 24" fill="none" xmlns="http://www.w3.org/2000/svg">
<circle cx="12" cy="12" r="12" fill="#A6B0C3"/>
<path d="M13.6037 9.67188H15.125C15.0952 8.19744 13.8381 7.15341 11.9801 7.15341C10.1477 7.15341 8.77131 8.18466 8.77557 9.72727C8.77557 10.9801 9.66619 11.7003 11.1023 12.071L12.0952 12.3267C13.0369 12.5653 13.6591 12.8594 13.6634 13.5369C13.6591 14.2827 12.9517 14.7812 11.9205 14.7812C10.9318 14.7812 10.1648 14.3381 10.1009 13.4219H8.54545C8.60938 15.1562 9.90057 16.1321 11.9332 16.1321C14.0256 16.1321 15.2401 15.0881 15.2443 13.5497C15.2401 12.0369 13.9915 11.3466 12.679 11.0355L11.8608 10.831C11.1449 10.6605 10.3693 10.358 10.3778 9.62926C10.3821 8.97301 10.9702 8.49148 11.9588 8.49148C12.9006 8.49148 13.5227 8.9304 13.6037 9.67188Z" fill="white"/>
</svg>
